<svg xmlns="http://www.w3.org/2000/svg" width="320" height="200" viewBox="0 0 320 200">
      <defs><linearGradient id="g2" x1="12" y1="84" x2="84" y2="12" gradientUnits="userSpaceOnUse">
        <stop offset="0%" stop-color="#3FA34F"></stop><stop offset="55%" stop-color="#5BBF5B"></stop><stop offset="100%" stop-color="#F5C518"></stop>
      </linearGradient></defs><g transform="translate(112 0)">
      <path d="M 18 14 Q 14 14 14 18 L 14 78 Q 14 82 18 82 L 78 82 Q 82 82 82 78 L 82 38 L 58 38 Q 54 38 54 34 L 54 14 Z" fill="url(#g2)"></path>
      <path d="M 58 14 L 82 38 L 60 38 Q 58 38 58 36 Z" fill="#F5C518"></path>
      <g stroke="#FAFFF5" stroke-width="6.5" stroke-linecap="round" fill="none">
        <line x1="28" y1="50" x2="52" y2="74"></line><line x1="52" y1="50" x2="28" y2="74"></line>
      </g>
      <circle cx="40" cy="62" r="3.5" fill="#F5C518"></circle></g>
      <g transform="translate(0 120)"><svg width="320" height="80" viewBox="0 0 320 80">
      <text x="0" y="60" font-family="Manrope, Helvetica, Arial, sans-serif" font-weight="800" font-size="68" letter-spacing="-2.5" fill="#1F2937">Invo</text>
      <g transform="translate(150 0)">
        <g stroke="#5BBF5B" stroke-width="9" stroke-linecap="round" fill="none">
          <line x1="6" y1="28" x2="40" y2="62"></line><line x1="40" y1="28" x2="6" y2="62"></line>
        </g>
        <circle cx="23" cy="45" r="4" fill="#5BBF5B"></circle>
      </g>
      <text x="200" y="60" font-family="Manrope, Helvetica, Arial, sans-serif" font-weight="800" font-size="68" letter-spacing="-2.5" fill="#1F2937">a</text></svg></g></svg>