<svg xmlns="http://www.w3.org/2000/svg" width="1024" height="1024" viewBox="0 0 1024 1024">
    <defs>
      <linearGradient id="bgg" x1="0" y1="0" x2="1" y2="1">
        <stop offset="0%" stop-color="#3FA34F"></stop>
        <stop offset="50%" stop-color="#5BBF5B"></stop>
        <stop offset="100%" stop-color="#F5C518"></stop>
      </linearGradient>
    </defs>
    <rect width="1024" height="1024" rx="240" ry="240" fill="url(#bgg)"></rect>
    <g transform="translate(232 232) scale(5.83)">
      <path d="M 18 14 Q 14 14 14 18 L 14 78 Q 14 82 18 82 L 78 82 Q 82 82 82 78 L 82 38 L 58 38 Q 54 38 54 34 L 54 14 Z" fill="#fff"></path>
      <path d="M 58 14 L 82 38 L 60 38 Q 58 38 58 36 Z" fill="#fff"></path>
      <g stroke="#0F1411" stroke-width="6.5" stroke-linecap="round" fill="none">
        <line x1="28" y1="50" x2="52" y2="74"></line>
        <line x1="52" y1="50" x2="28" y2="74"></line>
      </g>
      <circle cx="40" cy="62" r="3.5" fill="#0F1411"></circle>
    </g>
  </svg>